<?xml version="1.0" standalone="no"?>
<!DOCTYPE svg PUBLIC "-//W3C//DTD SVG 20010904//EN"
 "http://www.w3.org/TR/2001/REC-SVG-20010904/DTD/svg10.dtd">
<svg version="1.0" xmlns="http://www.w3.org/2000/svg"
 width="1600.000000pt" height="1478.000000pt" viewBox="0 0 1600.000000 1478.000000"
 preserveAspectRatio="xMidYMid meet">

<g transform="translate(0.000000,1478.000000) scale(0.100000,-0.100000)"
fill="#000000" stroke="none">
<path d="M0 7390 l0 -7390 8000 0 8000 0 0 7390 0 7390 -8000 0 -8000 0 0
-7390z m5446 1919 c71 -22 191 -78 266 -125 101 -64 248 -203 248 -236 0 -4
-31 2 -70 13 -38 10 -89 19 -112 19 -61 0 -140 -40 -172 -86 -31 -46 -32 -51
-6 -59 11 -3 20 -15 20 -25 0 -10 14 -32 30 -48 22 -23 30 -40 30 -66 0 -33 2
-36 30 -36 38 0 41 -26 4 -40 -63 -24 -104 2 -104 67 0 31 -2 33 -33 33 -31 0
-57 14 -57 32 0 4 9 8 20 8 11 0 20 2 20 4 0 2 3 11 6 20 5 13 -1 16 -30 16
-46 0 -58 22 -57 105 0 62 21 135 48 167 13 14 10 19 -29 46 -63 43 -183 105
-263 137 -81 31 -90 38 -73 52 35 29 194 30 284 2z m-453 -30 c-39 -15 -53
-26 -53 -40 0 -13 16 -27 53 -44 28 -14 78 -47 109 -73 31 -26 92 -69 135 -97
87 -57 133 -93 133 -105 0 -5 5 -21 10 -36 10 -26 11 -26 31 -8 17 16 22 16
30 4 9 -14 5 -68 -6 -79 -3 -3 -20 1 -38 7 -19 7 -55 12 -82 12 -65 0 -97 24
-165 119 -30 42 -63 85 -73 96 -10 11 -26 34 -34 50 -19 36 -31 45 -60 45 -18
0 -23 6 -23 25 0 60 -76 2 -126 -96 -29 -58 -30 -69 -5 -69 24 0 51 -10 51
-19 0 -3 -4 -13 -10 -21 -7 -12 -12 -11 -30 5 -18 16 -23 17 -30 5 -5 -8 -7
-24 -4 -35 3 -11 8 -64 13 -117 9 -106 22 -137 74 -169 41 -25 154 -59 198
-59 19 0 72 -16 119 -36 79 -33 166 -64 182 -64 4 0 8 10 10 23 2 14 11 23 27
25 21 3 23 7 17 50 -4 34 -3 40 3 20 5 -14 12 -55 16 -90 8 -70 26 -98 87
-129 21 -11 73 -56 117 -100 99 -102 118 -103 113 -9 -3 62 -3 64 13 43 30
-41 35 -75 22 -143 -17 -89 -33 -90 -116 -5 -35 36 -79 74 -97 86 -47 29 -128
35 -196 15 -73 -21 -78 -20 -78 8 0 27 27 40 113 52 87 12 72 45 -50 104 -147
70 -183 68 -386 -22 -49 -22 -95 -37 -104 -33 -13 4 -9 10 17 23 49 25 48 40
-4 63 -86 38 -109 105 -136 394 -5 55 -12 114 -15 130 -5 23 2 43 29 89 39 64
44 87 21 106 -39 32 -1 66 107 95 103 29 140 31 71 4z m2070 -311 c33 -17 97
-109 103 -149 7 -43 20 -48 84 -29 43 13 260 32 356 31 39 -1 102 3 140 8 112
16 133 3 94 -61 -11 -18 -20 -37 -20 -41 0 -11 83 -3 136 14 38 11 43 10 80
-14 46 -32 116 -36 204 -12 78 21 93 19 142 -18 24 -18 62 -38 85 -45 44 -13
123 -94 123 -127 0 -50 -81 -103 -115 -75 -18 15 -6 40 37 79 36 32 32 47 -15
56 -17 4 -47 16 -65 26 -18 10 -45 19 -59 19 -15 0 -36 11 -50 26 -21 23 -29
26 -66 20 -99 -16 -164 -18 -186 -7 -17 9 -40 8 -109 -5 -85 -17 -112 -27
-112 -45 0 -5 31 -8 69 -6 77 2 104 -10 85 -41 -7 -11 -30 -19 -65 -23 -30 -4
-81 -12 -114 -18 -33 -6 -78 -11 -99 -11 -22 0 -47 -6 -55 -14 -9 -7 -29 -18
-46 -23 -27 -9 -30 -14 -30 -49 0 -70 -23 -83 -56 -31 -16 25 -19 42 -14 78 7
56 -1 64 -71 73 -52 6 -221 56 -260 77 -28 14 -54 60 -54 96 -1 64 -52 158
-101 187 -33 20 -89 21 -114 3 -17 -13 -16 -14 11 -20 50 -10 81 -43 103 -109
28 -82 28 -128 1 -128 -12 0 -33 14 -48 31 -15 17 -50 54 -78 82 -59 59 -73
101 -50 144 30 59 132 85 199 51z m-1143 -51 c18 -14 50 -58 50 -69 0 -4 -21
2 -46 12 -83 36 -109 22 -52 -29 31 -28 32 -30 15 -48 -25 -28 -21 -45 15 -74
62 -52 2 -77 -106 -45 -53 16 -85 49 -86 89 0 15 -9 55 -20 88 -12 34 -20 63
-18 64 24 23 222 33 248 12z m-1041 -84 c0 -21 3 -63 7 -93 6 -49 5 -54 -8
-42 -10 8 -17 36 -20 75 -3 34 -8 70 -13 80 -5 13 -2 17 14 17 17 0 20 -6 20
-37z m1187 -123 c21 -104 9 -207 -34 -303 -31 -68 -91 -142 -123 -152 -26 -9
-49 11 -50 44 0 36 -30 106 -61 145 -36 45 -82 52 -161 25 -81 -27 -101 -23
-105 21 -1 19 -12 82 -23 138 -11 57 -19 106 -16 108 7 7 54 -145 62 -198 8
-51 19 -61 30 -27 7 22 47 42 103 52 25 5 37 2 52 -13 20 -20 20 -20 60 5 22
14 44 25 50 25 6 0 10 -28 10 -67 l1 -68 29 35 29 35 1 -78 c0 -69 2 -78 18
-75 13 2 19 18 24 67 4 35 12 69 17 74 12 12 25 -50 19 -98 -2 -19 -3 -35 -1
-35 7 0 32 74 47 138 23 103 21 177 -10 297 -4 16 -3 17 5 5 5 -9 17 -53 27
-100z m3197 -3 c18 -8 47 -26 65 -41 l32 -28 98 11 c340 36 696 -101 938 -362
289 -312 384 -741 259 -1172 -74 -255 -266 -520 -493 -683 -178 -127 -432
-212 -632 -212 -280 0 -592 131 -817 343 -52 49 -53 49 -85 37 -18 -8 -35 -15
-37 -16 -2 -2 32 -45 76 -96 44 -51 102 -127 130 -168 63 -93 107 -135 155
-148 21 -6 49 -19 63 -30 24 -19 36 -20 135 -15 79 4 110 3 110 -5 0 -7 -50
-80 -112 -164 -62 -84 -167 -236 -235 -338 -169 -254 -237 -349 -334 -460 -45
-52 -114 -138 -152 -190 -98 -132 -174 -232 -230 -304 -26 -33 -67 -92 -89
-131 -53 -89 -64 -101 -173 -193 -113 -94 -127 -109 -201 -207 -67 -88 -165
-193 -204 -218 -46 -29 -222 -67 -314 -67 -47 0 -86 -2 -86 -4 0 -2 16 -37 35
-77 54 -114 70 -207 70 -394 -1 -125 -6 -184 -23 -268 -42 -200 -117 -373
-227 -522 -317 -428 -770 -600 -1255 -475 -164 42 -295 110 -465 241 -281 217
-477 676 -451 1058 17 257 101 491 253 704 69 96 221 254 316 327 71 55 81 73
25 47 -41 -19 -128 -33 -128 -20 0 5 22 37 49 71 27 34 52 70 56 81 7 22 68
45 152 56 26 4 82 16 124 26 l75 20 27 112 c15 62 27 125 27 141 l0 29 -57 -6
c-90 -10 -163 -29 -163 -43 0 -7 -9 -18 -21 -24 -16 -9 -26 -8 -46 5 -24 16
-33 16 -142 0 -195 -28 -387 -63 -442 -81 -9 -2 -26 -31 -38 -64 -12 -33 -58
-133 -102 -221 -44 -89 -78 -163 -76 -166 2 -2 16 1 31 7 68 26 116 0 116 -63
0 -46 -36 -69 -146 -92 -88 -19 -100 -24 -115 -50 -22 -37 -23 -96 -4 -200 19
-107 47 -165 80 -165 33 0 45 -31 45 -115 l0 -65 -39 -19 c-59 -30 -181 -65
-226 -64 -71 2 -114 8 -125 19 -6 6 -17 44 -26 84 -8 41 -17 76 -18 78 -2 2
-40 -1 -85 -6 -86 -9 -126 0 -126 28 0 16 34 25 154 39 47 6 88 14 93 19 14
14 47 112 38 112 -5 0 -17 -12 -27 -26 -16 -21 -38 -30 -119 -50 -125 -30
-154 -31 -154 -5 0 11 5 23 11 27 28 17 199 268 199 293 0 4 -27 13 -59 19
-70 15 -81 33 -55 88 28 58 66 76 144 70 l66 -6 72 123 c69 119 122 238 122
276 0 16 -5 17 -57 9 -32 -5 -83 -16 -113 -24 -132 -36 -169 -43 -235 -44
-132 0 -189 52 -171 156 13 69 196 231 567 499 107 77 225 160 262 184 l68 44
40 -22 c44 -25 92 -25 97 0 2 12 -17 27 -63 50 -132 66 -184 134 -185 242 0
56 21 127 37 127 5 0 14 -9 20 -20 7 -10 31 -24 54 -30 38 -10 48 -9 93 13 28
14 59 27 69 31 10 3 25 20 35 37 9 17 25 41 34 53 l16 21 11 -27 c13 -35 34
-36 55 -3 9 14 23 25 31 25 19 0 19 -3 -5 -42 -22 -37 -26 -72 -7 -66 6 3 25
28 42 56 21 38 35 52 51 52 14 0 35 15 53 37 17 20 33 34 37 30 11 -10 -24
-55 -61 -80 -27 -17 -35 -29 -35 -53 0 -26 -13 -42 -90 -108 -95 -82 -129 -95
-66 -26 44 49 44 74 0 78 -38 4 -84 -32 -109 -83 -19 -41 -38 -41 -43 -2 -2
15 -8 27 -13 27 -5 0 -36 -18 -69 -41 -40 -27 -60 -48 -60 -61 0 -18 62 -122
80 -133 4 -3 22 8 39 24 32 30 64 44 176 76 104 30 179 97 263 236 57 93 91
91 37 -2 -30 -54 -31 -75 -4 -90 19 -10 26 -7 52 21 25 27 31 30 39 17 13 -24
-2 -47 -41 -63 -27 -11 -41 -24 -50 -50 -9 -26 -20 -36 -41 -41 -16 -3 -42
-18 -58 -34 -17 -16 -55 -38 -85 -48 -76 -27 -107 -49 -107 -77 0 -42 54 -31
197 40 70 35 130 62 133 59 3 -2 -13 -19 -35 -36 -21 -18 -51 -42 -65 -55
l-25 -23 43 5 c46 7 166 63 258 122 58 37 81 39 49 4 -21 -23 -40 -35 -177
-110 -54 -29 -95 -56 -92 -61 9 -15 109 23 203 78 181 104 211 142 236 293 8
52 15 110 15 128 0 36 25 55 42 31 9 -13 5 -113 -8 -204 l-6 -40 21 21 c12 11
34 56 49 100 18 49 34 79 42 79 22 0 24 -33 4 -97 -9 -32 -14 -61 -11 -64 14
-14 61 10 101 51 29 29 56 73 81 132 51 121 58 125 50 26 -4 -46 -4 -83 0 -83
17 0 127 74 140 94 11 16 45 209 45 253 0 3 4 2 9 -2 5 -3 15 -39 22 -80 7
-45 17 -75 24 -75 31 0 75 91 75 156 0 36 18 84 32 84 19 0 20 -35 4 -109 -22
-106 -21 -121 8 -121 12 0 38 5 56 11 l33 12 -6 86 -5 86 24 -30 c13 -17 24
-38 24 -48 0 -10 4 -16 10 -12 5 3 12 34 16 68 5 44 9 56 15 42 4 -11 8 -34 8
-51 1 -44 12 -48 32 -15 22 36 73 76 125 96 l39 16 -50 -45 c-48 -43 -58 -69
-17 -47 12 6 31 11 43 11 18 0 12 -5 -21 -22 -25 -13 -46 -31 -48 -40 -3 -15
4 -18 38 -18 35 0 54 9 117 55 42 30 85 55 97 55 19 -1 17 -4 -14 -33 -20 -17
-64 -53 -98 -79 -34 -27 -62 -52 -62 -57 0 -17 30 -20 68 -7 20 7 71 17 111
21 59 6 73 5 69 -6 -4 -12 -174 -68 -210 -69 -19 0 -22 -11 -12 -47 9 -34 38
-37 95 -9 52 27 79 32 79 17 0 -12 -100 -58 -144 -66 -20 -4 -36 -9 -36 -12 0
-2 21 -25 48 -51 39 -39 51 -60 70 -122 27 -91 27 -102 5 -98 -10 2 -31 29
-48 63 l-30 60 -3 -57 c-4 -70 14 -108 70 -148 69 -50 82 -40 99 76 14 96 24
124 43 124 38 0 38 -67 1 -170 -35 -100 -62 -110 -152 -61 -60 33 -59 36 -43
-69 18 -114 36 -152 103 -221 34 -35 67 -72 72 -82 10 -17 15 -17 115 -2 131
19 142 23 138 43 -3 14 -18 18 -83 20 -44 2 -84 7 -89 12 -5 5 6 15 24 25 32
16 32 17 25 76 l-7 59 39 0 c22 0 42 2 44 5 3 2 2 35 -2 72 -24 207 -30 286
-39 468 -5 110 -17 250 -25 310 -9 61 -20 182 -25 270 -9 173 -23 235 -51 235
-23 0 -30 -23 -23 -71 8 -47 -3 -49 -35 -6 -47 63 -67 72 -175 75 -74 3 -109
0 -142 -13 -50 -19 -56 -32 -17 -37 33 -4 43 -27 14 -35 -22 -6 -30 -46 -12
-58 5 -3 12 -19 16 -35 4 -17 8 -30 10 -30 19 0 35 17 35 36 0 30 27 32 32 2
3 -25 28 -37 28 -14 0 27 21 28 45 2 13 -14 50 -37 82 -51 69 -31 98 -56 125
-109 31 -60 58 -210 51 -284 -7 -78 -23 -92 -23 -19 0 30 -7 74 -15 97 -8 23
-15 70 -15 104 -1 33 -6 70 -13 82 -21 36 -51 70 -79 88 -31 20 -229 58 -241
47 -5 -5 -12 -48 -15 -97 -6 -76 -10 -89 -26 -92 -28 -6 -36 15 -36 96 0 64
-2 72 -19 72 -33 0 -51 -11 -51 -31 0 -23 -3 -23 -41 -4 -36 19 -49 13 -49
-23 0 -20 -3 -23 -12 -14 -19 19 -33 14 -45 -17 -9 -25 -15 -28 -44 -26 -19 2
-37 4 -41 4 -5 1 -8 8 -8 16 0 19 -30 19 -55 2 -12 -10 -14 -16 -7 -21 17 -10
15 -46 -3 -46 -8 0 -17 11 -21 25 -11 43 -33 30 -36 -22 -2 -37 -7 -49 -21
-51 -17 -3 -18 1 -12 42 7 44 6 46 -18 46 -41 0 -48 -19 -35 -86 6 -32 19 -71
30 -86 11 -16 18 -44 18 -73 0 -50 -14 -54 -23 -6 -4 20 -17 35 -36 45 -24 13
-31 26 -46 88 -20 82 -34 104 -62 94 -17 -7 -17 -8 0 -20 25 -19 21 -35 -10
-47 -22 -8 -30 -7 -40 7 -7 10 -13 21 -13 26 0 4 -4 8 -10 8 -5 0 -10 -28 -11
-62 -1 -87 -10 -112 -38 -116 -22 -4 -23 -1 -18 33 5 28 2 40 -14 53 -22 19
-25 42 -5 42 14 0 29 24 19 33 -2 3 -18 1 -35 -5 -28 -10 -30 -13 -24 -49 10
-62 -17 -61 -50 1 l-19 35 -3 -35 c-4 -62 -12 -80 -31 -80 -23 0 -38 18 -43
50 -2 19 -10 26 -30 28 -30 4 -53 -27 -45 -59 8 -29 -18 -23 -32 7 -6 14 -17
24 -23 22 -12 -4 -16 -11 -41 -70 -16 -37 -62 -77 -74 -64 -3 3 -1 17 5 31 24
52 5 110 -23 72 -8 -11 -27 -17 -53 -17 -48 0 -139 -32 -176 -61 -21 -16 -29
-18 -47 -9 -30 17 -54 9 -266 -95 -244 -120 -255 -142 -40 -82 59 16 98 34
116 51 33 32 151 69 151 48 0 -5 -19 -15 -42 -23 -24 -7 -61 -30 -83 -50 -22
-20 -58 -42 -80 -49 -22 -7 -78 -28 -125 -48 -91 -38 -202 -57 -233 -40 -22
11 -53 77 -68 145 -12 52 -26 519 -35 1131 -6 407 0 485 38 574 17 40 19 54
10 69 -18 29 -14 98 9 159 11 30 36 106 55 169 54 175 83 224 98 166 5 -18 0
-37 -14 -59 -27 -45 -27 -96 0 -96 11 0 27 -11 35 -24 15 -22 15 -27 1 -55
-28 -53 -22 -63 32 -55 59 7 81 -11 66 -54 -7 -21 -17 -28 -42 -30 -28 -3 -32
-7 -32 -33 0 -18 -5 -29 -14 -29 -7 0 -16 -9 -19 -20 -8 -30 -45 -26 -57 6
-15 37 -12 122 5 178 21 70 20 88 -7 84 -15 -2 -24 -12 -29 -33 -4 -16 -14
-47 -23 -68 -12 -28 -16 -61 -14 -120 3 -79 4 -82 33 -96 40 -19 56 -27 145
-76 70 -38 103 -75 65 -75 -21 0 -88 35 -104 54 -17 20 -51 21 -51 1 0 -8 11
-22 25 -31 33 -21 46 -46 35 -64 -7 -12 -12 -11 -30 5 -11 10 -26 30 -33 44
-12 26 -67 44 -67 22 0 -34 131 -224 190 -276 39 -34 80 -107 80 -142 0 -25 6
-36 28 -49 15 -9 40 -26 56 -37 29 -20 30 -20 64 -1 45 25 60 48 46 72 -6 9
-40 38 -75 64 -101 74 -169 138 -169 159 0 38 62 15 119 -45 36 -38 59 -44 79
-24 21 21 13 38 -63 135 -42 53 -74 98 -71 100 13 13 48 -14 85 -67 23 -33 47
-60 52 -60 18 0 20 28 4 54 -17 26 -13 46 9 46 6 0 23 -18 36 -40 27 -42 50
-52 50 -21 0 11 -20 59 -46 106 l-45 88 21 19 c23 22 21 47 -11 152 -20 67
-17 86 16 86 31 0 34 -5 45 -94 5 -41 17 -92 26 -113 l16 -38 22 65 c18 52 31
71 65 98 81 61 99 25 25 -52 -46 -48 -69 -90 -58 -107 11 -18 25 -8 52 36 15
25 30 45 34 45 13 0 9 -38 -8 -74 -18 -37 -14 -66 10 -66 8 0 17 8 21 19 3 10
14 26 25 36 19 17 20 17 20 1 0 -10 -9 -29 -20 -43 -24 -31 -26 -56 -4 -74 19
-15 30 -2 40 48 7 36 27 58 44 48 7 -4 5 -14 -5 -28 -22 -32 -19 -82 8 -113
44 -51 72 -12 45 62 -9 26 -9 36 2 49 22 26 31 13 35 -49 4 -60 23 -95 45 -81
8 5 10 21 5 49 -4 22 -9 56 -12 74 -11 66 39 124 75 88 14 -14 14 -17 -3 -36
-23 -26 -23 -81 0 -116 23 -36 37 -26 51 35 12 54 25 71 56 71 27 0 29 -15 8
-43 -29 -37 -25 -50 25 -86 25 -18 50 -41 56 -52 19 -37 34 -14 49 77 13 79
17 89 38 92 20 3 22 0 22 -49 0 -40 5 -58 21 -75 17 -18 19 -26 10 -42 -16
-31 -13 -42 12 -42 30 0 44 -11 56 -43 8 -21 17 -28 33 -25 35 5 34 36 -3 74
-27 28 -30 34 -16 40 9 3 24 -1 32 -10 19 -19 25 -19 61 -6 34 13 38 9 23 -24
-17 -37 0 -55 36 -36 36 19 32 55 -10 102 -27 30 -34 44 -29 61 18 59 54 65
54 8 0 -34 5 -42 40 -65 81 -54 140 -44 140 23 0 43 19 58 51 40 23 -12 44 1
54 32 5 14 12 18 25 14 10 -3 21 -1 25 5 3 5 19 10 35 10 23 0 30 6 39 31 16
46 14 114 -4 129 -8 7 -15 22 -15 34 -1 11 -7 32 -15 46 -8 14 -14 44 -15 68
0 34 -3 42 -19 42 -29 0 -40 -21 -50 -94 -10 -72 -3 -109 31 -158 22 -31 23
-58 4 -58 -38 0 -93 125 -82 186 6 30 4 34 -14 34 -29 0 -60 -35 -60 -68 0
-15 11 -44 25 -64 26 -39 31 -58 16 -58 -13 0 -57 58 -70 93 -6 15 -15 27 -21
27 -18 0 -23 -30 -11 -57 6 -14 10 -28 7 -30 -11 -11 -44 9 -55 33 -17 37 -3
54 123 154 58 46 106 89 106 97 0 17 -51 17 -94 -1 -19 -8 -42 -28 -52 -45
-17 -30 -41 -43 -97 -55 -15 -4 -39 -20 -54 -36 -17 -20 -36 -30 -55 -30 -15
0 -28 -4 -28 -9 0 -12 -81 -51 -107 -51 -11 0 -40 14 -64 32 -41 29 -45 30
-86 20 -42 -12 -84 -5 -97 16 -3 5 10 40 28 78 19 38 37 84 41 102 3 17 11 32
17 32 5 0 30 -18 55 -40 56 -49 78 -50 104 -5 17 29 27 35 54 35 27 0 37 6 54
35 23 40 22 39 111 20 89 -20 99 -19 110 10 13 35 53 48 128 40 67 -7 92 2 92
36 0 13 -9 19 -32 21 -37 4 -50 27 -18 35 13 3 27 21 36 44 12 28 26 43 57 57
47 22 147 45 156 37 12 -13 -17 -38 -64 -56 -53 -20 -75 -41 -75 -72 0 -19 5
-20 82 -14 70 6 79 5 62 -7 -10 -7 -39 -21 -64 -30 -45 -17 -45 -17 -46 -66
l0 -50 92 0 c101 0 124 10 124 55 0 31 32 48 71 40 19 -4 42 -1 65 10 32 15
39 15 87 1 118 -34 220 -140 232 -241 8 -64 -5 -93 -46 -102 -22 -4 -29 -11
-29 -28 0 -60 -90 -111 -146 -82 -20 10 -45 13 -76 10 -59 -7 -70 11 -39 60
12 19 21 39 21 46 0 26 -91 2 -127 -35 -7 -7 -13 -29 -13 -49 0 -38 -28 -103
-54 -125 -14 -11 -19 -10 -34 4 -10 9 -26 16 -35 16 -24 0 -21 -37 3 -45 21
-7 25 -22 12 -41 -15 -21 -119 -94 -136 -94 -22 0 -31 -26 -20 -58 7 -20 19
-28 48 -34 74 -16 88 -50 30 -74 -20 -8 -38 -23 -41 -32 -4 -18 -136 -68 -152
-58 -16 10 -20 -34 -4 -49 19 -20 73 -19 87 1 19 25 93 30 132 9 19 -10 34
-21 34 -25 0 -4 -27 -38 -60 -75 -33 -37 -60 -75 -60 -84 0 -9 -9 -34 -20 -55
-21 -43 -18 -61 8 -47 10 5 68 57 129 115 110 105 202 217 222 269 10 25 41
39 41 18 0 -33 -61 -194 -111 -296 -65 -131 -126 -217 -179 -252 -42 -29 -55
-29 -36 -1 20 28 22 108 2 108 -19 0 -58 -31 -149 -120 -83 -80 -104 -107 -90
-120 15 -14 156 28 244 74 47 24 108 47 135 51 27 4 59 13 71 21 12 8 33 14
47 14 19 0 26 7 31 31 7 29 35 83 65 125 41 56 140 60 169 6 7 -12 5 -28 -6
-50 -24 -49 -8 -51 35 -5 33 36 44 42 97 48 64 8 183 43 234 70 35 18 40 40
12 55 -27 14 -26 14 -58 -20 -24 -25 -43 -33 -136 -51 -59 -12 -111 -19 -114
-15 -4 3 4 20 16 37 32 43 17 50 -95 42 -64 -4 -93 -2 -98 6 -24 38 42 132
132 190 54 34 278 101 338 101 21 0 77 -9 124 -21 47 -11 119 -23 160 -26 117
-10 133 -33 159 -246 9 -80 16 -95 94 -193 17 -23 41 -54 52 -69 11 -16 32
-44 47 -63 26 -32 27 -35 12 -64 -17 -33 -15 -69 3 -76 7 -2 18 8 24 22 15 33
23 33 38 -1 23 -53 74 -118 125 -160 55 -47 70 -51 98 -26 24 21 23 76 -2 217
-10 61 -26 156 -35 211 -9 55 -28 127 -42 160 -106 250 -124 301 -130 377 -6
85 -16 109 -33 92 -23 -23 -29 -83 -12 -133 14 -45 14 -53 -2 -102 -36 -112
-107 -229 -137 -229 -12 0 -11 32 3 85 10 39 10 49 -4 73 -13 21 -14 37 -8 72
11 55 31 113 59 168 36 70 31 78 -46 85 -108 11 -158 8 -199 -9 -23 -10 -72
-18 -119 -19 -44 -2 -101 -6 -128 -10 -53 -8 -77 4 -77 39 0 37 20 46 95 46
39 0 105 9 146 20 91 24 147 25 170 4 22 -20 142 -46 174 -38 25 6 35 38 34
103 0 40 -31 123 -47 129 -18 6 -178 -36 -269 -71 -48 -19 -110 -40 -138 -47
-51 -14 -284 -116 -343 -150 -86 -51 -30 8 63 65 38 24 97 56 130 71 91 42
235 133 235 150 0 21 -53 40 -132 49 -37 3 -91 13 -120 21 -77 20 -130 18
-162 -7 -15 -11 -53 -55 -85 -97 -33 -43 -82 -99 -111 -127 -64 -62 -140 -163
-140 -187 0 -38 39 -19 77 39 50 74 66 84 94 56 42 -41 7 -114 -75 -158 -31
-17 -38 -17 -78 -5 -24 8 -48 21 -54 29 -12 16 -34 7 -34 -14 0 -12 -107 -42
-215 -60 l-40 -6 28 25 c31 28 36 78 12 110 -16 21 -20 66 -7 66 4 0 24 -16
43 -36 43 -45 85 -67 113 -60 27 7 118 142 114 170 -3 18 -12 22 -67 26 -36 3
-66 10 -68 16 -6 17 43 34 98 34 65 0 106 -22 117 -62 l8 -31 58 64 c32 35
103 123 157 196 55 73 104 135 110 139 14 8 3 51 -22 82 -23 30 -25 60 -3 69
21 8 40 -13 57 -61 l14 -40 23 42 c31 55 81 78 192 90 102 11 132 27 256 130
128 106 118 104 220 52 84 -44 87 -46 87 -80 0 -31 -6 -39 -47 -66 -97 -65
-319 -139 -493 -163 -74 -11 -89 -19 -79 -44 9 -24 94 -22 297 4 175 22 231
41 297 100 44 40 79 63 85 57 6 -5 -115 -127 -140 -140 -8 -5 -15 -18 -15 -30
0 -19 4 -20 54 -14 38 5 61 3 75 -6 25 -15 28 -60 6 -78 -22 -18 -19 -24 18
-41 17 -8 51 -26 74 -39 l42 -25 21 28 c12 15 39 36 59 47 21 10 55 40 76 65
37 46 40 47 81 41 40 -5 44 -3 78 34 19 22 60 73 90 113 47 63 92 107 111 107
22 0 -29 -66 -196 -253 -107 -119 -155 -184 -145 -194 9 -10 78 60 144 147
104 135 300 325 319 307 9 -10 -24 -48 -133 -151 -120 -113 -294 -304 -294
-323 0 -7 9 -13 20 -13 13 0 35 21 63 57 62 84 120 139 154 146 17 3 44 18 62
32 35 30 38 27 15 -16 -19 -38 -12 -47 20 -25 119 77 189 242 157 364 -39 141
-166 146 -316 11 -105 -95 -281 -229 -299 -229 -25 0 14 49 137 173 148 151
222 208 310 238 63 22 97 23 140 6z m-2040 -191 c42 -17 67 -42 67 -66 0 -18
-2 -18 -41 -5 -23 8 -52 15 -66 15 -13 0 -33 5 -44 11 -17 9 -28 6 -58 -15
-39 -27 -91 -35 -91 -13 0 7 11 29 25 50 l26 37 75 0 c41 0 89 -6 107 -14z
m1396 -123 c0 -52 -33 -129 -61 -147 -23 -14 -34 -1 -20 27 6 12 12 50 15 85
3 65 14 82 50 82 14 0 17 -9 16 -47z m-3319 15 c0 -7 -40 -51 -89 -98 -123
-118 -176 -215 -197 -362 -3 -27 -10 -48 -15 -48 -12 0 -22 84 -14 122 10 45
48 126 79 167 32 43 33 61 2 61 -16 0 -31 -12 -50 -40 -30 -46 -46 -44 -46 3
l-1 32 -23 -29 c-21 -25 -46 -29 -46 -6 0 7 58 77 107 127 22 23 44 29 57 16
3 -4 -10 -24 -31 -45 -39 -40 -39 -67 0 -30 25 23 47 29 47 12 0 -23 32 -7 87
43 90 82 133 106 133 75z m2123 -39 c45 -29 60 -60 37 -74 -12 -7 -100 73
-100 91 0 21 11 17 63 -17z m-2293 -273 c0 -40 -37 -246 -45 -255 -10 -10 -17
57 -11 112 14 125 28 187 42 187 10 0 14 -13 14 -44z m516 -147 c-27 -40 -89
-79 -103 -65 -4 4 21 35 56 69 69 67 92 65 47 -4z m-88 27 c4 -18 -21 -46 -40
-46 -4 0 -12 9 -18 21 -9 15 -8 24 1 35 17 20 53 14 57 -10z m1662 -439 c0 -7
-6 -21 -13 -32 -17 -22 -32 -5 -22 25 7 22 35 28 35 7z m-286 -59 c-5 -7 -18
-28 -31 -47 -20 -29 -23 -31 -23 -12 0 12 11 33 25 46 26 27 41 33 29 13z
m1460 -215 c-1 -51 -44 -123 -74 -123 -24 0 -42 32 -33 57 4 10 23 40 42 66
44 59 66 59 65 0z m-1050 -1266 c14 -135 19 -287 9 -287 -17 0 -23 37 -23 136
0 70 -5 103 -21 143 -17 40 -19 54 -10 65 22 27 38 7 45 -57z m1816 -2521
c-113 -57 -243 -117 -290 -134 -98 -36 -368 -112 -485 -137 -160 -34 -513
-143 -583 -179 -58 -30 -40 -39 66 -33 110 7 173 20 567 118 154 38 307 72
340 76 l60 6 -24 -26 c-32 -35 -95 -58 -266 -97 -76 -17 -143 -34 -147 -36 -4
-3 -8 -13 -8 -23 0 -39 -151 -95 -319 -117 -126 -17 -269 -61 -496 -155 -147
-60 -140 -57 -132 -65 3 -4 36 -1 72 6 45 9 70 9 77 2 16 -16 -57 -60 -148
-88 -45 -13 -92 -34 -105 -46 -39 -34 -105 -59 -178 -67 -52 -5 -77 -14 -105
-34 -45 -35 -106 -61 -117 -50 -14 14 19 66 116 178 52 61 113 145 137 188
114 206 114 206 364 276 354 100 542 158 964 296 327 107 411 133 600 188 282
82 286 77 40 -47z m-1263 -262 c-85 -46 -409 -159 -485 -169 -92 -12 -17 21
226 100 130 42 242 78 247 80 29 10 36 2 12 -11z"/>
<path d="M5561 9053 c-40 -34 -55 -203 -17 -203 7 0 22 22 34 49 12 30 35 61
61 81 22 18 38 37 35 42 -5 8 -78 48 -87 48 -3 0 -14 -8 -26 -17z"/>
<path d="M4867 9213 c-9 -8 -9 -53 -1 -53 10 0 33 33 34 48 0 13 -22 17 -33 5z"/>
<path d="M7665 8783 c-71 -5 -80 -9 -64 -29 11 -14 10 -18 -6 -30 -10 -8 -31
-14 -45 -14 -15 0 -36 -11 -50 -25 -15 -16 -34 -25 -55 -25 -17 0 -40 -7 -51
-15 -26 -20 -10 -30 72 -45 37 -7 70 -20 80 -31 9 -10 29 -19 44 -19 32 0 98
45 125 86 34 52 75 137 69 145 -5 9 -18 9 -119 2z"/>
<path d="M9456 8579 c-91 -12 -100 -20 -92 -83 9 -77 19 -82 107 -55 93 29
260 32 357 6 146 -39 306 -119 460 -229 46 -33 85 -58 88 -55 10 10 -162 181
-240 239 -93 70 -212 129 -316 158 -88 24 -261 34 -364 19z"/>
<path d="M8285 8483 c-50 -26 -66 -44 -54 -60 18 -21 65 -15 98 13 59 50 27
85 -44 47z"/>
<path d="M9493 8386 c-61 -10 -92 -21 -119 -41 -34 -26 -51 -51 -42 -60 2 -3
49 7 104 21 233 61 450 23 600 -107 59 -51 73 -73 74 -120 0 -26 8 -43 33 -67
38 -37 47 -39 47 -14 0 10 6 27 14 38 13 17 16 17 30 4 8 -8 44 -69 81 -134
36 -65 78 -134 92 -153 19 -24 23 -37 15 -45 -14 -14 -50 25 -90 100 -30 55
-67 100 -76 91 -3 -2 15 -44 38 -92 40 -82 80 -191 108 -297 l13 -45 3 40 c5
66 13 74 27 26 105 -343 -158 -786 -567 -955 -136 -56 -203 -69 -348 -64 -107
4 -137 9 -213 35 -96 34 -174 77 -239 134 -42 37 -43 38 -28 66 9 15 28 32 43
37 23 8 34 4 82 -28 91 -63 256 -119 300 -103 16 7 17 16 11 82 -4 40 -14 97
-22 125 -18 61 -12 77 22 56 30 -21 31 -20 38 9 4 14 11 25 16 25 6 0 15 -11
20 -25 7 -17 17 -25 34 -25 31 0 45 -35 22 -58 -14 -14 -17 -14 -35 2 -34 31
-44 16 -48 -73 -1 -45 2 -91 7 -102 22 -39 156 -17 295 50 195 93 349 265 421
471 23 64 23 65 3 83 -10 10 -19 29 -19 43 0 48 -31 22 -60 -50 -52 -128 -105
-206 -142 -206 -27 0 -22 32 8 61 40 37 72 98 99 189 28 94 40 113 66 105 15
-5 19 -1 19 18 0 13 9 36 21 51 25 31 22 56 -17 180 -59 186 -157 321 -308
424 -94 65 -125 80 -166 81 -19 1 -51 2 -70 4 -35 2 -35 2 -49 -57 -13 -54
-17 -60 -52 -74 -39 -15 -47 -26 -29 -37 6 -3 10 -15 10 -26 0 -16 -6 -19 -27
-17 -52 5 -31 -24 31 -46 34 -12 76 -37 98 -57 l38 -36 0 -91 c0 -80 2 -93 19
-102 11 -5 29 -10 40 -10 38 0 55 68 26 106 -23 30 -18 44 15 44 23 0 30 -4
30 -20 0 -23 34 -40 81 -40 34 0 39 -22 12 -52 -13 -15 -15 -23 -7 -36 17 -27
49 -26 68 2 9 15 25 26 36 26 22 0 70 20 70 29 0 19 -65 115 -102 150 -73 73
-209 121 -337 121 -30 0 -41 4 -39 13 3 8 32 13 87 15 236 8 394 -115 461
-361 22 -79 23 -138 4 -144 -13 -4 -30 36 -40 92 -4 22 -8 43 -11 47 -6 11
-67 -14 -81 -34 -7 -10 -19 -18 -27 -18 -11 0 -14 -14 -13 -52 1 -56 -15 -108
-32 -108 -19 0 -10 -33 15 -56 16 -15 25 -34 25 -54 0 -23 -6 -33 -25 -42 -18
-8 -25 -19 -25 -39 0 -56 -86 -82 -108 -34 -7 14 -12 33 -12 42 0 10 -6 13
-16 9 -9 -3 -20 -6 -26 -6 -7 0 -8 -22 -4 -66 6 -55 4 -70 -10 -85 -22 -24
-33 -24 -60 2 -29 27 -60 19 -44 -10 5 -11 10 -22 10 -25 0 -13 -64 -37 -86
-32 -21 6 -24 11 -21 53 2 40 -1 48 -17 51 -12 3 -26 -5 -36 -18 -36 -48 -108
8 -80 61 11 20 10 25 -11 40 -67 50 -77 61 -83 85 -5 17 0 36 14 58 28 46 27
70 -2 62 -13 -4 -45 -11 -73 -16 -27 -6 -57 -13 -66 -15 -16 -5 -79 -92 -92
-127 -3 -10 -14 -18 -23 -18 -12 0 -15 6 -10 23 18 62 18 88 1 107 -24 27 -44
25 -85 -10 -39 -34 -70 -38 -93 -12 -20 22 -13 56 20 95 32 39 31 61 -3 53
-15 -4 -40 -10 -56 -13 -28 -5 -29 -8 -23 -44 7 -43 -10 -59 -65 -59 -28 0
-31 -3 -28 -27 3 -25 8 -28 42 -31 27 -2 40 -9 43 -22 3 -12 13 -17 28 -15 28
3 35 -2 58 -37 14 -22 25 -28 54 -28 28 0 45 -9 80 -41 33 -30 51 -39 71 -37
25 3 27 6 27 53 0 47 2 50 27 53 38 4 56 -30 34 -63 -21 -31 -20 -33 7 -37 36
-5 27 -32 -13 -38 -23 -3 -36 -11 -38 -22 -2 -11 3 -18 11 -18 8 0 18 -11 21
-25 8 -32 23 -32 48 1 18 22 22 24 35 11 13 -13 13 -18 -2 -41 -21 -31 -13
-76 13 -76 23 0 42 19 42 41 0 25 24 41 38 27 19 -19 14 -38 -14 -48 -20 -8
-24 -14 -18 -33 3 -12 7 -22 8 -22 0 0 10 -5 21 -11 28 -16 25 -36 -8 -52 -44
-21 -117 7 -163 64 -20 24 -42 44 -48 44 -7 0 -22 -13 -34 -30 -13 -16 -29
-30 -36 -30 -19 0 -46 34 -46 58 0 41 -33 117 -65 153 -18 20 -36 50 -40 67
-8 37 -29 57 -51 48 -20 -8 -13 -67 16 -133 10 -24 15 -43 11 -43 -11 0 -44
78 -66 152 -15 54 -37 79 -51 57 -11 -18 6 -82 49 -184 35 -85 52 -109 104
-162 62 -60 76 -83 51 -83 -21 0 -80 40 -111 74 -39 43 -100 174 -133 284 -15
50 -31 92 -35 92 -25 0 -24 -116 1 -216 70 -276 306 -497 615 -575 126 -32
313 -33 440 -1 346 87 655 414 729 775 23 110 21 310 -3 412 -71 295 -270 550
-522 670 -150 71 -342 98 -506 71z m307 -506 c0 -11 6 -23 14 -26 21 -8 29
-36 14 -46 -26 -16 -47 -8 -50 20 -2 21 -9 28 -30 30 -34 4 -36 19 -5 32 38
15 57 12 57 -10z m290 -436 c0 -20 -30 -30 -41 -13 -6 9 -3 18 8 26 18 14 33
8 33 -13z m17 -80 c6 -17 -12 -34 -37 -34 -25 0 -43 17 -37 34 4 10 18 16 37
16 19 0 33 -6 37 -16z m-149 -372 c3 -19 -1 -23 -15 -20 -10 2 -19 14 -21 26
-3 19 1 23 15 20 10 -2 19 -14 21 -26z m-50 -45 c3 -25 0 -28 -20 -25 -17 2
-24 11 -26 31 -3 25 0 28 20 25 17 -2 24 -11 26 -31z m-182 -5 c16 -10 34 -48
34 -70 0 -10 -9 -27 -19 -36 -18 -17 -20 -17 -40 3 -40 40 -18 132 25 103z
m118 -18 c11 -29 6 -44 -14 -44 -23 0 -35 22 -26 45 7 20 32 19 40 -1z"/>
<path d="M7115 8358 c-24 -13 -105 -89 -105 -99 0 -3 20 -19 45 -35 25 -15 54
-43 65 -61 12 -20 27 -33 40 -33 30 0 87 26 123 56 l32 27 5 -34 c4 -28 10
-35 33 -37 25 -3 27 -1 27 31 0 42 -26 107 -43 107 -6 0 -41 -18 -76 -40 -36
-21 -67 -37 -70 -34 -4 3 14 23 38 43 49 42 50 63 7 83 -30 13 -56 -3 -56 -33
0 -20 -12 -23 -44 -10 -17 6 -14 10 18 29 44 26 48 52 9 52 -16 0 -37 -6 -48
-12z"/>
<path d="M6263 8274 c-24 -10 -13 -44 19 -64 38 -23 45 -18 50 30 3 33 1 35
-27 37 -16 1 -36 0 -42 -3z"/>
<path d="M9475 8269 c-27 -4 -80 -18 -116 -29 -54 -18 -76 -32 -120 -77 -30
-31 -94 -87 -144 -124 -49 -37 -105 -83 -123 -102 l-33 -34 82 -23 c91 -24
102 -22 128 26 35 63 47 75 85 85 l39 10 -7 45 c-7 56 8 89 51 109 58 28 223
47 223 26 0 -15 -63 -39 -134 -50 -88 -13 -101 -29 -65 -75 17 -22 28 -26 72
-26 64 0 124 27 160 69 31 38 34 57 10 84 -17 18 -17 19 2 33 10 8 33 14 51
14 102 0 165 29 93 44 -43 8 -192 6 -254 -5z"/>
<path d="M6720 8208 c0 -40 13 -51 43 -37 33 15 34 23 5 43 -31 22 -48 20 -48
-6z"/>
<path d="M6975 8181 c-36 -16 -40 -21 -41 -57 -1 -21 -5 -49 -9 -61 -12 -37
28 -29 70 12 28 29 35 43 35 75 0 21 -4 41 -8 44 -4 2 -26 -3 -47 -13z"/>
<path d="M6853 8180 c-42 -10 -59 -24 -67 -56 -9 -33 11 -104 31 -111 21 -8
43 23 43 59 0 17 10 40 25 56 25 27 30 53 10 58 -5 1 -25 -2 -42 -6z"/>
<path d="M8367 8144 c-33 -28 -42 -29 -90 -9 -71 29 -94 -18 -29 -58 78 -49
278 -166 302 -177 14 -6 30 -21 35 -33 7 -16 30 -28 80 -44 39 -12 118 -46
178 -75 115 -56 122 -57 159 -7 10 13 19 34 20 47 3 20 -6 27 -57 49 -81 34
-274 93 -306 93 -17 0 -32 9 -42 23 -9 14 -50 38 -104 60 -48 21 -99 46 -113
56 -23 18 -24 21 -11 56 7 20 11 38 9 40 -1 2 -16 -8 -31 -21z"/>
<path d="M7308 8065 c-8 -18 -8 -29 -1 -36 17 -17 33 -1 33 32 0 36 -16 38
-32 4z"/>
<path d="M6928 7965 c-6 -30 7 -42 27 -25 22 18 19 50 -4 50 -12 0 -20 -9 -23
-25z"/>
<path d="M9257 7882 c-23 -26 -21 -55 6 -80 43 -40 107 -20 107 34 0 54 -78
85 -113 46z"/>
<path d="M4666 7794 c-10 -26 -7 -79 6 -92 25 -25 38 -13 38 32 0 53 -8 76
-25 76 -7 0 -16 -7 -19 -16z"/>
<path d="M9546 7764 c-10 -25 20 -64 49 -64 42 0 69 42 43 68 -18 18 -85 15
-92 -4z"/>
<path d="M6663 7741 c-43 -20 -79 -63 -68 -81 4 -6 -4 -10 -20 -10 -16 0 -39
-13 -61 -35 -19 -19 -43 -35 -54 -35 -10 0 -55 -13 -100 -30 -45 -16 -97 -30
-116 -30 -29 0 -34 -3 -34 -23 0 -13 6 -32 14 -43 14 -19 15 -19 39 4 24 22
26 23 35 5 10 -17 12 -17 34 5 27 25 43 29 35 8 -9 -23 5 -27 31 -10 26 17 52
13 52 -10 0 -19 -13 -23 -147 -42 -125 -17 -254 -15 -352 7 l-55 11 28 15 c39
20 33 58 -9 58 -27 0 -30 -3 -30 -31 0 -29 -2 -31 -22 -23 -19 7 -23 5 -23
-12 0 -33 -24 -7 -39 41 -10 34 -16 41 -34 38 -16 -2 -23 -11 -24 -33 -2 -16
-8 -54 -14 -83 -10 -50 -9 -56 11 -77 18 -19 22 -32 17 -60 -8 -48 0 -65 29
-65 19 0 24 5 24 25 0 32 14 32 28 0 17 -37 15 -43 -15 -59 -26 -13 -28 -19
-29 -84 -2 -69 -1 -70 30 -83 19 -9 32 -23 34 -36 2 -12 10 -27 18 -33 21 -19
18 -83 -6 -105 -11 -10 -20 -22 -20 -28 0 -5 -6 -23 -14 -40 -19 -42 -26 -86
-15 -93 14 -8 49 6 49 20 0 13 58 51 67 42 3 -3 -7 -16 -22 -29 -23 -19 -27
-29 -21 -50 8 -32 34 -35 110 -12 27 8 73 15 102 15 50 0 168 37 202 63 8 7
12 37 10 101 -2 75 3 105 25 174 15 45 36 140 47 210 30 197 49 242 98 242 33
0 66 32 76 73 7 30 36 37 36 8 0 -29 26 -44 63 -37 l33 6 -4 99 -4 98 36 28
c20 15 36 31 36 36 0 15 -53 9 -97 -10z"/>
<path d="M9063 7733 c-13 -2 -32 -16 -43 -30 -36 -47 -16 -60 221 -140 118
-40 218 -73 222 -73 4 0 5 23 1 50 -8 61 12 71 22 10 7 -42 13 -46 45 -29 11
6 25 8 32 6 7 -2 -3 -11 -20 -21 -18 -9 -33 -20 -33 -24 0 -13 74 -40 123 -46
58 -7 99 -27 134 -66 34 -38 74 -40 97 -4 10 14 16 33 14 42 -4 17 -11 18 -75
6 -35 -7 -63 8 -63 33 0 8 11 28 25 44 13 16 22 35 19 42 -2 7 -36 21 -74 31
-38 10 -72 22 -75 27 -4 5 -21 9 -38 9 -18 0 -70 14 -117 30 -61 22 -102 30
-150 30 -58 0 -70 3 -89 24 -45 47 -103 63 -178 49z"/>
<path d="M5710 7707 c0 -16 42 -57 58 -57 20 0 13 20 -15 45 -32 28 -43 31
-43 12z"/>
<path d="M8431 7706 c-13 -15 2 -143 19 -160 6 -6 32 7 67 30 75 52 79 79 13
111 -66 32 -86 35 -99 19z"/>
<path d="M5840 7665 c-10 -13 -10 -19 5 -35 22 -24 53 -26 62 -5 6 17 -23 55
-42 55 -7 0 -18 -7 -25 -15z"/>
<path d="M4699 7639 c-17 -33 -6 -121 19 -157 12 -17 19 -37 16 -46 -8 -22
-24 -10 -24 18 0 27 -46 92 -52 74 -3 -7 -6 -42 -7 -78 -2 -35 -4 -67 -6 -71
-4 -5 6 -411 22 -876 l5 -173 25 0 c13 0 34 5 45 11 19 10 20 17 14 108 -5 67
-2 130 9 209 9 62 14 116 11 121 -16 25 -46 338 -42 438 4 101 6 114 32 154
27 40 29 48 27 138 -3 118 -15 151 -54 151 -19 0 -32 -7 -40 -21z"/>
<path d="M9055 7545 c-35 -19 -45 -32 -45 -62 0 -34 14 -35 85 -7 60 24 66 29
63 53 -3 22 -9 26 -38 29 -19 1 -48 -5 -65 -13z"/>
<path d="M9836 7545 c-9 -9 -16 -20 -16 -24 0 -11 57 -51 74 -51 38 0 19 82
-20 88 -12 2 -29 -4 -38 -13z"/>
<path d="M8530 7525 c-19 -23 -4 -45 29 -45 36 0 46 13 31 40 -13 24 -42 26
-60 5z"/>
<path d="M7644 7515 c-8 -20 4 -35 42 -51 58 -24 117 13 74 48 -28 23 -108 25
-116 3z"/>
<path d="M6097 7500 c-21 -4 -43 -12 -49 -18 -16 -16 -2 -42 24 -42 13 0 34
-7 46 -16 30 -20 65 -10 57 17 -4 11 -1 26 5 34 9 11 7 16 -9 24 -11 6 -23 10
-28 10 -4 -1 -25 -5 -46 -9z"/>
<path d="M8635 7480 c-15 -46 39 -130 83 -130 40 0 58 34 37 66 -16 24 -91 84
-106 84 -4 0 -11 -9 -14 -20z"/>
<path d="M7849 7446 c-20 -18 -42 -36 -50 -39 -11 -5 -10 -9 5 -21 46 -37 110
-2 104 56 -4 43 -17 43 -59 4z"/>
<path d="M7940 7475 c0 -3 9 -24 20 -45 17 -33 26 -40 50 -40 25 0 30 4 30 24
0 28 -46 66 -79 66 -12 0 -21 -2 -21 -5z"/>
<path d="M10311 7406 c-13 -16 -4 -46 14 -46 7 0 18 7 25 15 10 12 10 18 0 30
-15 19 -24 19 -39 1z"/>
<path d="M9605 7370 c-4 -14 -15 -20 -36 -20 -37 0 -48 -24 -24 -50 23 -25 37
-25 60 0 10 11 20 18 23 15 9 -9 42 16 42 33 0 40 -54 58 -65 22z"/>
<path d="M4946 7324 c-19 -51 11 -104 59 -104 18 0 38 7 45 15 11 14 7 23 -30
60 -47 48 -64 55 -74 29z"/>
<path d="M6578 7316 c-10 -7 -18 -24 -18 -37 0 -13 -16 -44 -35 -68 -41 -51
-42 -57 -14 -71 35 -19 75 5 109 65 30 52 36 79 24 109 -7 19 -42 20 -66 2z"/>
<path d="M9650 7279 c0 -25 33 -22 38 4 2 12 -3 17 -17 17 -15 0 -21 -6 -21
-21z"/>
<path d="M9523 7253 c-18 -7 -16 -48 2 -63 21 -17 79 -1 83 23 7 37 -40 59
-85 40z"/>
<path d="M7954 7226 c-23 -7 -61 -27 -85 -43 -80 -55 -105 -64 -175 -62 -36 1
-69 -2 -74 -7 -15 -16 -30 -124 -20 -144 7 -12 7 -28 0 -45 -24 -64 -4 -81 54
-46 17 10 56 24 87 30 46 10 69 22 119 66 35 30 65 53 68 51 10 -11 -13 -49
-57 -93 -39 -40 -61 -52 -122 -70 -47 -14 -83 -31 -99 -48 -34 -37 -16 -49 46
-30 27 8 61 15 76 15 33 0 102 -26 140 -52 l28 -19 24 28 c20 23 26 25 40 14
22 -19 20 -34 -9 -59 -27 -24 -31 -42 -14 -73 9 -17 17 -19 50 -14 33 6 38 4
33 -9 -8 -22 -47 -30 -73 -17 -12 7 -30 29 -41 50 -33 65 -56 77 -167 85 -86
6 -99 5 -110 -11 -22 -29 -16 -52 15 -59 15 -3 37 -10 49 -16 18 -9 30 -7 58
8 22 11 38 15 43 9 65 -77 85 -110 84 -138 -1 -24 10 -42 43 -78 51 -54 89
-124 82 -150 -3 -11 -1 -21 3 -24 9 -5 72 28 103 53 9 9 20 13 23 9 9 -9 -70
-82 -133 -123 -70 -45 -208 -111 -243 -116 -16 -2 -26 -11 -30 -28 -8 -34 -37
-38 -51 -6 -12 25 -39 36 -39 16 0 -13 -79 -90 -94 -90 -47 -2 -58 -70 -11
-70 59 0 37 -44 -65 -126 -38 -31 -70 -60 -70 -64 0 -5 15 -18 34 -29 22 -14
36 -32 39 -51 9 -42 44 -49 97 -19 47 27 54 22 64 -42 9 -59 23 -55 31 9 8 69
27 102 59 102 23 0 24 -1 22 -107 -1 -141 8 -161 87 -187 57 -18 90 -15 52 6
-31 18 -65 59 -91 110 -29 57 -29 58 -6 58 9 0 23 -13 30 -28 15 -36 67 -89
106 -110 20 -10 57 -16 102 -16 96 -1 156 34 197 113 40 80 35 208 -10 270
-66 90 -257 94 -349 7 -34 -31 -46 -13 -19 28 31 46 80 68 169 75 79 6 81 7
84 33 3 24 -2 28 -53 44 -30 10 -64 26 -75 36 -25 24 -27 83 -2 103 97 80 120
95 139 95 14 0 23 -6 23 -16 0 -9 9 -27 19 -40 16 -20 18 -31 10 -57 -7 -26
-6 -34 8 -44 28 -21 49 -15 98 27 58 50 81 51 101 5 8 -20 20 -35 27 -34 7 2
23 -3 37 -10 28 -13 80 -1 80 20 0 6 18 32 40 57 49 55 48 76 0 80 -28 2 -45
13 -82 55 -45 51 -47 51 -66 34 -11 -10 -23 -30 -27 -45 -5 -21 0 -31 24 -54
22 -21 37 -27 51 -23 16 5 20 2 20 -19 0 -34 -15 -41 -40 -16 -11 11 -27 20
-35 20 -8 0 -19 8 -24 19 -9 17 -68 49 -74 40 -2 -2 -11 -17 -21 -32 -20 -32
-64 -53 -79 -38 -7 7 -1 24 18 51 21 31 34 40 57 40 21 0 33 8 48 33 36 58 16
93 -26 46 -28 -33 -95 -79 -112 -79 -9 0 24 41 74 90 49 50 97 90 106 90 10 0
25 -14 33 -31 12 -21 22 -29 37 -27 38 6 43 31 17 84 -20 41 -24 62 -22 132 2
75 -6 99 -22 72 -12 -19 -34 -9 -122 55 -48 35 -105 77 -125 92 -54 38 -46 73
11 51 44 -16 70 30 31 54 -11 7 -20 19 -20 26 0 10 -10 12 -40 7 l-40 -7 0 36
0 36 -40 -6 c-34 -6 -40 -4 -40 11 0 9 9 30 21 46 23 33 22 68 -3 80 -10 5
-26 13 -35 18 -13 6 -17 18 -15 45 4 41 -4 44 -74 22z m175 -480 c17 -20 2
-48 -23 -44 -24 3 -34 37 -14 49 18 12 24 11 37 -5z m-69 -66 c0 -11 -6 -20
-14 -20 -18 0 -29 16 -21 30 11 18 35 11 35 -10z m220 -25 c0 -16 7 -28 18
-31 57 -19 106 -41 109 -51 3 -7 -11 -22 -31 -35 -28 -19 -34 -27 -29 -49 8
-40 -23 -46 -42 -9 -8 16 -28 49 -45 73 -19 28 -30 58 -30 79 0 39 6 48 32 48
13 0 18 -7 18 -25z m-90 -60 c0 -18 -5 -25 -20 -25 -15 0 -20 7 -20 25 0 18 5
25 20 25 15 0 20 -7 20 -25z m-12 -108 c-2 -11 -9 -22 -15 -25 -16 -4 -27 22
-19 43 8 22 38 6 34 -18z m79 -3 c8 -21 -13 -42 -28 -27 -13 13 -5 43 11 43 6
0 13 -7 17 -16z m-162 -24 c16 -32 12 -70 -7 -70 -22 0 -48 33 -48 60 0 50 32
55 55 10z m-155 -388 c0 -5 -6 -17 -14 -27 -16 -23 -46 -14 -46 15 0 16 7 20
30 20 17 0 30 -4 30 -8z m-119 -91 c51 -52 26 -103 -39 -80 -22 7 -37 7 -51
-1 -27 -14 -41 -5 -41 26 0 77 77 109 131 55z m-66 -145 c19 -13 19 -15 0 -57
-23 -55 -49 -83 -69 -76 -12 5 -14 18 -9 64 3 32 10 64 16 71 13 16 39 15 62
-2z m385 -39 c35 -35 37 -72 5 -72 -12 0 -25 11 -33 28 -11 22 -20 27 -48 27
-28 0 -34 4 -34 20 0 23 33 40 62 32 10 -2 32 -18 48 -35z m-180 -76 c0 -11
-4 -23 -10 -26 -16 -10 -11 -66 10 -110 48 -99 161 -100 229 -1 37 54 44 57
30 16 -14 -40 -79 -96 -129 -111 -94 -28 -187 42 -198 149 -3 36 0 56 13 76
21 31 55 35 55 7z m114 -17 c21 -8 20 -41 -2 -53 -38 -20 -71 27 -34 48 21 13
17 12 36 5z"/>
<path d="M5015 7188 c-51 -9 -85 -31 -85 -54 0 -6 14 -38 30 -69 29 -55 30
-61 30 -193 0 -166 -13 -165 -42 4 -11 66 -22 129 -24 142 -6 30 -31 39 -52
18 -20 -19 -22 -123 -5 -278 13 -120 21 -132 85 -125 73 9 61 -9 -24 -37 -25
-8 -22 -26 4 -26 32 0 10 -18 -27 -22 -28 -3 -30 -5 -27 -43 2 -27 11 -46 25
-57 l22 -17 -23 -21 c-12 -11 -22 -23 -22 -27 0 -16 116 13 313 77 213 71 219
73 242 111 25 39 66 58 130 60 99 2 133 52 55 79 -39 14 -49 23 -75 74 -39 75
-53 82 -104 55 -22 -11 -50 -19 -63 -17 -20 3 -16 8 35 46 55 41 71 72 46 87
-17 11 -240 -153 -247 -181 -2 -7 6 -15 17 -19 63 -20 -15 -82 -115 -92 -49
-5 -54 -4 -54 14 0 11 11 30 25 43 13 12 36 54 51 93 15 38 40 85 57 103 40
46 27 55 -26 17 -23 -17 -52 -33 -64 -37 -25 -8 -63 0 -63 13 0 5 48 32 107
61 116 58 208 134 201 166 -2 10 -22 29 -46 42 -39 22 -46 23 -92 11 -38 -10
-58 -10 -88 -1 -22 7 -43 11 -48 11 -5 -1 -31 -6 -59 -11z m199 -54 c26 -10
19 -43 -10 -50 -37 -9 -52 10 -29 36 21 23 18 22 39 14z m-113 -100 c11 -14
10 -18 -6 -30 -23 -17 -55 -18 -55 -2 0 13 29 48 40 48 4 0 14 -7 21 -16z
m409 -298 c0 -29 -205 -185 -292 -224 -52 -22 -29 8 37 50 36 23 65 46 65 51
0 18 -74 -3 -116 -33 -43 -31 -104 -41 -104 -17 0 46 247 126 263 85 3 -8 27
9 63 45 58 57 84 70 84 43z"/>
<path d="M5690 7159 c-17 -28 -20 -43 -15 -83 7 -54 37 -150 66 -208 11 -21
19 -44 19 -53 0 -8 5 -15 10 -15 6 0 10 28 10 65 0 54 -5 72 -26 105 -26 38
-26 40 -10 87 8 26 17 64 18 83 3 30 0 35 -17 33 -11 -1 -23 3 -26 9 -5 7 -16
-2 -29 -23z"/>
<path d="M9480 7141 c0 -11 6 -21 13 -24 20 -7 37 4 37 24 0 14 -7 19 -25 19
-18 0 -25 -5 -25 -19z"/>
<path d="M10276 7069 c-66 -111 -190 -245 -302 -325 -73 -52 -207 -116 -282
-135 -100 -25 -110 -76 -13 -64 207 26 404 151 554 351 88 118 114 168 98 188
-20 24 -35 20 -55 -15z"/>
<path d="M7488 7073 c-36 -42 -39 -61 -33 -196 6 -111 11 -140 31 -182 33 -67
83 -123 95 -104 13 20 11 42 -6 82 -8 20 -15 50 -15 67 0 34 -20 79 -44 99
-23 19 -20 39 7 43 20 3 22 8 20 63 -2 33 2 72 8 88 20 48 -29 79 -63 40z"/>
<path d="M5363 7043 c-44 -47 -106 -133 -100 -139 6 -7 74 28 103 53 11 10 31
33 43 51 40 58 3 86 -46 35z"/>
<path d="M6760 6820 c-72 -10 -162 -43 -202 -73 -18 -14 -53 -28 -78 -32 -25
-3 -68 -13 -96 -21 -45 -12 -55 -19 -72 -54 l-19 -40 23 0 c50 0 199 43 217
63 19 22 19 22 36 -10 13 -26 41 -31 41 -7 0 11 5 14 17 10 9 -4 20 -1 24 5 4
7 33 14 66 16 75 5 121 20 133 43 6 10 10 39 10 64 0 52 4 50 -100 36z"/>
<path d="M8669 6729 c-15 -29 -3 -83 24 -108 47 -44 122 -101 132 -101 5 0 20
-3 32 -6 16 -4 25 -1 29 10 4 11 -24 48 -91 121 -54 58 -101 105 -106 105 -5
0 -13 -9 -20 -21z"/>
<path d="M6250 6631 c-25 -14 -118 -30 -235 -40 -60 -5 -120 -13 -132 -16 -20
-6 -23 -4 -23 19 0 16 -6 26 -14 26 -17 0 -66 -81 -66 -109 0 -34 -28 -24 -41
14 -7 19 -21 38 -31 41 -23 7 -89 -31 -169 -97 -33 -28 -62 -49 -65 -47 -2 3
13 25 34 49 55 64 102 126 102 134 0 11 -55 -2 -106 -24 -44 -20 -58 -41 -28
-41 31 0 7 -25 -27 -28 -19 -2 -70 -17 -114 -34 -255 -98 -443 -177 -494 -209
-71 -44 -130 -149 -83 -149 9 0 74 29 144 64 69 36 141 69 159 74 19 6 67 22
106 36 45 16 94 26 128 26 40 0 70 7 106 26 28 14 74 28 102 31 37 5 58 13 75
32 20 21 26 23 42 13 29 -18 39 -15 52 13 13 29 25 31 49 9 16 -14 19 -14 34
9 11 17 22 23 35 20 34 -9 68 6 82 35 17 34 57 43 65 13 6 -25 0 -25 88 -2 47
12 71 24 73 35 4 20 42 21 42 1 0 -12 5 -12 39 0 70 24 101 45 101 65 0 22 -7
24 -30 11z"/>
<path d="M7643 6603 c-12 -2 -26 -10 -32 -17 -14 -17 -4 -46 15 -46 19 0 18
-26 -1 -34 -50 -19 23 -76 96 -76 58 0 78 19 49 45 -25 23 -25 41 0 55 32 17
23 37 -22 54 -57 20 -79 24 -105 19z"/>
<path d="M8497 6563 c-15 -15 -5 -51 34 -117 53 -90 77 -116 106 -116 39 0 38
27 -1 73 -20 23 -52 65 -70 92 -38 57 -60 78 -69 68z"/>
<path d="M7839 6423 c-34 -32 -49 -53 -47 -67 3 -19 10 -21 63 -20 59 1 60 1
58 29 -1 15 2 36 8 47 13 24 3 58 -17 58 -8 0 -37 -21 -65 -47z"/>
<path d="M8971 6461 c-23 -14 -5 -39 36 -50 56 -16 73 -14 73 8 0 38 -72 65
-109 42z"/>
<path d="M7413 6414 c-3 -8 -2 -45 2 -82 4 -37 7 -109 6 -159 l-3 -93 30 0
c38 0 144 72 246 167 105 96 98 119 -43 149 -40 9 -87 12 -118 8 -39 -5 -57
-2 -75 10 -28 20 -37 20 -45 0z"/>
<path d="M6754 6255 c-8 -20 2 -45 19 -45 7 0 22 6 32 14 16 12 17 16 6 30
-17 20 -50 21 -57 1z"/>
<path d="M6534 6142 c-122 -80 -270 -172 -278 -172 -15 0 -195 -112 -283 -177
-90 -65 -311 -186 -380 -207 -13 -4 -23 -12 -23 -18 0 -6 7 -7 18 -3 9 4 57
20 106 36 173 57 377 162 486 250 87 70 262 183 385 248 106 56 152 92 141
110 -15 24 -59 7 -172 -67z"/>
<path d="M8661 6144 c-36 -27 -61 -53 -61 -64 0 -18 53 -70 71 -70 6 0 7 -15
3 -35 -8 -43 -2 -44 95 -10 92 32 151 69 151 95 0 27 -18 34 -47 19 -19 -10
-28 -10 -43 -1 -28 17 -37 15 -74 -13 -67 -51 -74 -14 -11 49 28 28 33 61 9
70 -25 10 -29 8 -93 -40z"/>
<path d="M6870 6163 c0 -28 12 -63 20 -63 9 0 17 39 12 63 -2 9 -10 17 -18 17
-8 0 -14 -8 -14 -17z"/>
<path d="M8096 6159 c-32 -25 -33 -53 -4 -73 35 -25 46 -19 56 31 15 69 -1 82
-52 42z"/>
<path d="M6639 6080 c-14 -4 -64 -31 -112 -61 -47 -30 -114 -70 -149 -89 -76
-43 -152 -102 -174 -135 -9 -13 -20 -44 -26 -67 -13 -58 -24 -70 -63 -62 -37
7 -53 -6 -97 -77 -68 -111 -507 -391 -573 -365 -8 3 -15 14 -15 24 0 25 55
106 85 126 33 22 32 46 0 46 -41 0 -76 -23 -145 -98 -60 -64 -71 -72 -139 -92
-69 -21 -75 -22 -108 -6 -43 20 -55 14 -117 -58 -26 -31 -52 -56 -58 -56 -18
0 -245 -110 -348 -169 -98 -56 -130 -78 -130 -93 0 -19 40 -6 105 35 79 48
154 81 305 133 58 20 148 55 200 79 183 83 259 94 324 45 22 -17 48 -30 59
-30 10 0 44 24 75 54 31 30 98 78 147 108 50 30 153 96 231 145 155 100 240
146 257 140 14 -4 -65 -63 -293 -215 -102 -68 -186 -127 -188 -132 -8 -22 54
-22 134 1 75 21 87 28 109 61 14 21 27 38 30 38 2 0 1 -17 -2 -37 -5 -32 -4
-35 11 -30 10 4 19 7 21 7 2 0 17 22 35 50 18 28 37 47 43 43 6 -3 39 24 74
63 34 38 63 64 63 57 0 -6 -29 -48 -65 -94 -36 -45 -65 -88 -65 -96 0 -15 22
-17 67 -4 17 5 69 11 115 12 l83 4 9 -100 c4 -55 9 -146 10 -202 1 -67 5 -106
14 -114 6 -7 12 -25 12 -40 0 -53 -62 -68 -68 -16 -4 34 -19 35 -32 2 -5 -14
-17 -28 -26 -32 -19 -7 -36 15 -28 38 5 16 -19 49 -35 49 -5 0 -14 -7 -21 -15
-10 -12 -8 -21 10 -50 18 -29 20 -38 10 -51 -11 -13 -15 -13 -30 1 -24 22 -30
19 -30 -14 0 -35 -24 -59 -44 -42 -7 6 -11 22 -8 36 4 21 1 25 -21 25 -13 0
-44 -7 -68 -16 -24 -9 -105 -31 -179 -49 -180 -45 -193 -49 -198 -63 -7 -22
49 -32 201 -38 190 -6 295 -20 354 -45 46 -20 46 -20 65 1 20 22 48 27 48 9 0
-25 33 -79 49 -79 45 0 58 76 19 103 -20 14 -21 18 -8 26 8 6 36 11 61 11 41
0 51 -4 78 -35 38 -43 39 -64 6 -103 -27 -33 -31 -48 -13 -54 7 -3 9 -12 5
-22 -10 -24 -41 -16 -45 12 -5 32 -28 22 -24 -10 2 -16 -3 -28 -12 -31 -18 -7
-31 9 -31 38 0 13 -7 20 -20 20 -16 0 -20 -7 -20 -35 0 -28 -4 -35 -20 -35
-14 0 -21 8 -23 28 -3 23 -8 28 -25 25 -17 -2 -23 -11 -25 -37 -3 -28 2 -38
31 -62 41 -34 117 -148 117 -176 0 -31 -38 -73 -66 -73 -20 0 -24 5 -24 31 0
17 -9 42 -20 56 -22 28 -18 43 11 43 33 0 34 29 3 61 -34 36 -66 37 -93 3 -24
-31 -21 -58 22 -164 38 -95 42 -100 85 -100 58 0 122 37 141 81 l16 38 55 -6
c33 -3 90 1 144 12 49 9 143 18 208 20 65 3 148 11 184 20 98 23 106 18 33
-20 -39 -20 -100 -40 -150 -50 -106 -20 -219 -54 -331 -102 -99 -42 -106 -54
-68 -128 23 -45 26 -69 8 -63 -7 3 -21 27 -31 54 -10 27 -24 54 -30 60 -17 17
-142 43 -158 33 -11 -6 -13 -50 -11 -205 1 -109 -1 -195 -4 -191 -4 4 -12 30
-18 59 -9 38 -18 56 -34 63 -14 6 -23 22 -27 47 -7 42 -28 58 -72 58 -32 0
-53 -16 -53 -40 0 -9 -9 -25 -20 -35 -17 -15 -24 -16 -50 -5 -48 20 -41 53 20
91 28 17 50 35 50 40 0 4 -14 16 -30 24 -37 19 -67 12 -93 -21 -10 -13 -25
-24 -32 -24 -19 0 -35 -32 -35 -69 0 -28 -3 -31 -33 -31 -18 0 -43 -7 -56 -16
-20 -14 -23 -23 -18 -60 4 -38 2 -43 -19 -48 -29 -8 -41 -49 -26 -89 10 -25 8
-34 -8 -55 -33 -42 -21 -124 24 -154 6 -4 5 -12 -3 -22 -32 -38 -6 -125 44
-148 17 -8 23 -18 23 -39 -1 -39 15 -56 89 -89 69 -31 75 -45 41 -85 -25 -29
-78 -44 -150 -45 -61 0 -65 -14 -43 -136 9 -49 19 -107 22 -128 l6 -40 -59 46
c-168 130 -285 299 -336 486 -30 111 -30 324 1 437 53 197 180 377 374 532 64
52 79 74 56 88 -16 11 -115 -54 -193 -126 -39 -37 -98 -104 -130 -150 -79
-111 -86 -118 -42 -35 81 150 182 259 308 332 34 21 66 42 70 48 26 39 -59 9
-157 -56 -195 -130 -329 -348 -395 -645 -17 -73 -29 -66 -18 10 42 306 215
570 478 727 50 30 100 63 111 73 22 20 26 92 5 119 -36 48 -315 64 -400 23
-46 -22 -256 -222 -325 -309 -157 -199 -241 -373 -282 -586 -54 -286 11 -604
184 -893 49 -81 145 -207 105 -137 -8 14 -34 58 -58 99 -129 222 -194 451
-194 686 -1 173 33 340 98 475 14 30 24 46 20 35 -3 -11 -18 -74 -32 -140 -22
-102 -26 -146 -26 -295 -1 -213 17 -322 81 -494 70 -191 80 -198 28 -21 -65
220 -99 490 -77 610 l10 50 1 -53 c5 -239 70 -506 172 -706 47 -92 119 -209
126 -203 2 3 -21 53 -51 113 -68 137 -121 304 -142 446 -18 123 -15 154 5 50
36 -183 157 -482 245 -606 44 -62 124 -142 133 -133 2 3 -27 60 -66 127 -92
161 -153 309 -198 482 -35 136 -37 151 -37 308 -1 130 2 170 14 190 15 25 15
25 17 -20 20 -386 211 -854 423 -1035 64 -54 206 -126 300 -151 100 -27 309
-25 420 4 307 82 537 302 633 607 72 230 61 505 -29 725 -32 77 -49 99 -65 83
-7 -7 -2 -24 19 -57 50 -79 67 -168 67 -351 -1 -177 -19 -279 -77 -425 -37
-93 -121 -220 -185 -280 -46 -43 -47 -44 -13 -5 19 21 40 44 46 50 5 5 21 26
35 45 138 193 211 496 180 747 -19 156 -29 151 -29 -12 1 -323 -77 -542 -256
-721 -120 -119 -264 -191 -460 -229 -80 -15 -111 -29 -99 -47 9 -15 137 -2
224 22 151 42 261 109 369 227 34 37 56 57 50 43 -66 -129 -218 -235 -425
-296 -124 -37 -257 -39 -368 -5 -43 13 -80 28 -83 33 -3 4 25 8 61 7 38 -1 71
3 78 10 6 6 7 11 1 11 -5 0 -38 5 -73 11 -79 12 -121 33 -121 59 0 26 8 25 70
-7 61 -32 137 -40 229 -25 36 6 92 14 124 17 80 9 85 24 51 158 -14 56 -31
108 -38 116 -23 29 -90 71 -113 71 -26 0 -32 -24 -8 -34 8 -3 15 -14 15 -25 0
-22 -33 -36 -67 -29 -24 4 -29 45 -7 69 17 18 16 20 -4 42 -25 27 -29 65 -8
73 8 3 38 2 67 -3 48 -7 55 -12 78 -51 28 -46 61 -71 99 -72 29 0 30 31 1 71
-26 37 -20 55 20 61 40 6 71 -16 71 -48 0 -13 7 -27 16 -31 42 -16 66 72 40
147 -22 62 -20 84 8 99 40 22 61 11 61 -32 0 -26 6 -41 17 -48 23 -13 38 16
38 70 0 37 -3 42 -34 55 -27 11 -42 29 -67 78 -17 35 -41 76 -51 91 -14 19
-17 32 -11 38 7 7 24 -6 51 -36 24 -27 48 -46 59 -45 35 4 41 0 47 -35 8 -41
29 -45 52 -10 19 29 12 55 -15 55 -35 0 -63 33 -68 83 l-6 47 -52 -6 c-35 -4
-63 -2 -83 7 -25 11 -28 16 -22 39 18 62 80 179 103 194 13 9 54 19 91 23 71
6 109 25 178 89 95 86 340 254 371 254 20 0 2 -28 -33 -53 -24 -17 -40 -36
-40 -49 0 -11 -9 -31 -20 -45 -11 -14 -20 -36 -20 -49 0 -20 5 -24 30 -24 47
0 124 80 144 149 22 74 20 136 -5 188 -40 83 -164 163 -253 163 -48 0 -155
-54 -156 -77 0 -7 -12 -16 -27 -19 -34 -8 -43 -20 -43 -57 0 -36 -26 -46 -51
-18 -11 11 -29 21 -39 21 -22 0 -25 12 -9 42 6 11 8 22 5 25 -2 3 -50 -5 -106
-16 -91 -20 -102 -21 -116 -7 -8 9 -30 16 -47 16 -18 0 -27 4 -22 9 10 8 49
16 235 46 47 8 86 14 86 15 1 0 4 9 7 20 13 51 196 72 307 36 111 -37 199 -90
261 -158 32 -36 38 -38 63 -28 15 6 69 19 119 30 93 20 137 41 137 64 0 7 -18
27 -41 45 -39 32 -40 34 -23 52 20 22 57 25 73 5 7 -8 15 -31 18 -51 3 -20 13
-39 21 -42 18 -8 42 23 42 54 0 26 15 31 24 8 4 -11 20 -15 55 -15 47 0 52 3
91 48 22 26 55 68 73 93 52 75 158 211 203 259 22 25 64 76 93 115 l52 69 -38
33 c-51 43 -73 43 -73 0 0 -51 -71 -149 -146 -203 -88 -63 -94 -71 -64 -95 24
-19 25 -20 6 -34 -27 -20 -49 -19 -71 5 -10 11 -29 20 -42 20 -29 0 -98 -32
-137 -63 -26 -21 -28 -25 -16 -48 7 -13 28 -42 46 -64 68 -85 42 -104 -78 -55
-42 16 -83 30 -92 30 -8 0 -18 5 -21 10 -13 21 -43 10 -53 -20 -11 -30 -55
-51 -72 -34 -5 5 -10 32 -12 59 -3 46 -5 50 -30 53 -15 2 -40 -4 -57 -13 -26
-13 -30 -19 -25 -44 5 -22 2 -31 -12 -39 -27 -13 -271 -5 -356 13 -67 14 -75
18 -128 74 -64 67 -114 101 -150 101 -14 0 -32 5 -40 10 -26 18 39 67 97 75
111 14 124 17 121 28 -2 7 -27 23 -56 36 -29 14 -52 28 -52 32 0 3 14 23 30
44 35 44 37 55 11 55 -10 0 -46 -28 -79 -61 -38 -39 -65 -58 -72 -54 -20 12
-5 111 31 200 25 64 35 112 50 239 10 88 23 164 29 170 5 5 10 18 10 28 0 30
-42 21 -100 -22 -56 -42 -103 -56 -145 -46 -43 11 -28 22 56 41 75 17 109 34
109 55 0 4 -8 18 -19 31 -18 22 -21 23 -69 11 -40 -11 -54 -11 -70 -1 -15 10
-32 9 -85 -4 -79 -20 -110 -22 -105 -4 3 6 21 21 42 32 25 13 43 34 55 61 17
38 68 87 134 127 24 16 26 22 21 56 -5 34 -4 40 16 46 42 13 110 85 110 115 0
15 7 44 15 63 8 20 15 38 15 41 0 9 -27 12 -51 6z m-72 -772 c-35 -147 -49
-230 -54 -320 -5 -100 -14 -140 -28 -127 -15 16 -45 219 -45 308 0 129 17 154
109 160 19 1 22 -3 18 -21z m-947 -881 c0 -20 -26 -43 -115 -100 l-80 -51 35
-6 35 -6 -90 -87 c-49 -47 -86 -89 -83 -93 4 -3 29 7 57 22 27 16 53 26 56 22
4 -4 -12 -23 -34 -43 -46 -41 -51 -55 -21 -55 11 0 20 -3 20 -7 0 -13 -72
-113 -81 -113 -14 0 -10 43 6 64 27 35 17 54 -11 21 -28 -33 -28 -33 -7 44 l6
25 -32 -23 c-18 -13 -35 -21 -38 -18 -12 12 49 96 112 155 65 61 65 62 35 62
-16 0 -30 4 -30 9 0 16 130 131 183 161 57 33 77 37 77 17z m842 -564 c24 -29
29 -53 18 -94 -15 -55 -60 -104 -87 -95 -30 10 -35 32 -17 68 12 22 15 46 11
79 -3 26 -3 50 0 53 13 13 61 5 75 -11z m-488 -209 c9 -3 16 -12 16 -19 0 -12
32 -38 75 -60 22 -12 28 -56 8 -62 -7 -3 -24 8 -38 23 -21 23 -35 28 -73 29
-41 0 -47 3 -50 23 -2 12 1 22 7 22 6 0 11 9 11 19 0 11 6 22 13 24 6 3 13 6
14 6 1 1 8 -2 17 -5z m-104 -19 c0 -8 -4 -15 -9 -15 -13 0 -22 16 -14 24 11
11 23 6 23 -9z m518 -137 c-3 -20 -10 -23 -54 -26 -35 -2 -57 -9 -69 -22 -9
-10 -23 -16 -31 -13 -21 8 -75 -83 -65 -110 10 -27 4 -47 -14 -47 -23 0 -37
39 -30 78 11 61 32 90 71 101 19 5 44 21 55 35 18 23 28 26 80 26 57 0 60 -1
57 -22z m-482 -16 c6 -4 15 -30 19 -58 7 -57 -1 -70 -39 -60 -19 5 -24 14 -29
53 -4 37 -2 51 11 61 18 14 23 14 38 4z m503 -60 c48 -23 85 -96 75 -146 -18
-97 -135 -147 -209 -90 -19 15 -18 15 15 9 43 -8 86 7 123 43 21 20 27 35 27
67 0 70 -67 112 -150 94 -48 -11 -49 -4 -3 20 46 25 77 25 122 3z m-373 -13
c3 -6 -1 -18 -10 -27 -19 -19 -49 -7 -54 22 -3 12 4 16 27 16 16 0 33 -5 37
-11z m-220 -86 c-10 -10 -19 5 -10 18 6 11 8 11 12 0 2 -7 1 -15 -2 -18z m121
-15 c6 -7 11 -30 11 -50 2 -48 -20 -51 -42 -6 -19 38 -20 55 -3 61 20 8 24 8
34 -5z m123 -23 c17 -20 -3 -45 -37 -45 -31 0 -42 29 -18 46 24 18 40 18 55
-1z m-180 -69 c0 -18 -27 -29 -36 -14 -4 5 0 14 7 19 20 13 29 11 29 -5z m124
-42 c9 -3 16 -14 16 -23 0 -9 9 -24 20 -34 36 -31 21 -64 -25 -53 -15 4 -27
16 -31 30 -3 14 -12 27 -20 30 -19 7 -18 33 4 45 21 13 17 12 36 5z m283 -34
c30 -23 58 -25 93 -5 35 20 42 18 38 -7 -4 -28 -42 -48 -93 -48 -50 0 -85 23
-85 56 0 29 14 31 47 4z m-331 -61 c3 -6 0 -15 -7 -20 -22 -14 -29 -11 -29 11
0 21 24 27 36 9z m104 -113 c0 -11 -19 -15 -25 -6 -3 5 1 10 9 10 9 0 16 -2
16 -4z m486 -491 c-33 -25 -168 -73 -241 -86 -74 -13 -225 -7 -266 11 -19 8
-16 8 16 3 134 -23 316 1 446 61 63 29 71 30 45 11z"/>
<path d="M8183 6014 c-3 -8 -1 -26 5 -40 9 -18 19 -24 42 -24 26 0 30 4 30 28
0 15 -5 33 -12 40 -17 17 -58 15 -65 -4z"/>
<path d="M8313 6004 c-4 -11 1 -22 12 -30 28 -21 37 -17 33 13 -3 32 -35 44
-45 17z"/>
<path d="M8546 6004 c-22 -22 -20 -29 15 -58 34 -29 79 -35 79 -11 0 14 -62
85 -74 85 -2 0 -12 -7 -20 -16z"/>
<path d="M8421 5991 c-18 -33 -13 -60 27 -126 25 -43 43 -65 56 -65 18 0 18
-1 1 -20 -39 -43 15 -107 70 -82 20 9 25 19 25 51 0 42 -12 57 -50 63 -23 4
-23 5 -5 12 60 22 62 32 10 67 -34 23 -41 34 -45 71 -5 41 -6 43 -42 46 -28 2
-39 -1 -47 -17z"/>
<path d="M8770 5930 c-33 -33 -22 -130 15 -130 8 0 15 4 15 8 0 5 16 34 35 66
19 32 35 62 35 67 0 18 -80 9 -100 -11z"/>
<path d="M6960 5583 c1 -181 6 -368 11 -416 11 -90 7 -137 -12 -137 -5 0 -23
10 -39 22 -22 16 -33 19 -41 11 -20 -20 0 -62 40 -89 31 -20 40 -33 45 -65 7
-46 20 -50 40 -11 8 15 23 36 35 46 l21 19 -20 32 c-24 39 -25 63 -3 196 25
150 24 246 -3 284 -25 35 -40 130 -50 313 -12 229 -24 126 -24 -205z"/>
<path d="M8347 5874 c-35 -19 -45 -58 -22 -84 24 -26 47 -25 74 4 47 50 7 110
-52 80z"/>
<path d="M5369 5852 c-57 -39 -63 -57 -17 -48 31 6 68 32 68 46 0 17 -29 18
-51 2z"/>
<path d="M8644 5848 c-4 -13 -8 -54 -10 -93 -1 -38 -5 -83 -9 -98 -7 -25 -5
-28 11 -25 29 5 42 45 46 143 3 77 1 90 -14 93 -10 2 -19 -6 -24 -20z"/>
<path d="M5208 5749 c-36 -18 -50 -39 -28 -39 20 0 80 29 80 39 0 19 -15 19
-52 0z"/>
<path d="M8665 5608 c-33 -33 -98 -90 -145 -125 -138 -104 -132 -97 -86 -103
l39 -5 -57 -52 c-31 -29 -77 -67 -102 -84 -25 -19 -44 -40 -44 -51 0 -24 37
-98 49 -98 5 0 47 48 93 107 46 59 129 154 186 212 57 57 112 121 123 142 18
37 27 120 12 118 -5 0 -35 -27 -68 -61z"/>
<path d="M8320 5624 c-6 -14 -10 -33 -10 -42 0 -9 -9 -30 -20 -47 -37 -55 -28
-68 52 -80 54 -8 57 -4 65 96 5 53 2 68 -11 82 -27 26 -65 22 -76 -9z"/>
<path d="M6502 5600 c-19 -11 -32 -26 -29 -33 10 -27 154 8 145 35 -8 22 -80
21 -116 -2z"/>
<path d="M5685 5514 c-188 -43 -237 -57 -242 -71 -3 -8 -4 -16 -1 -18 5 -6
208 21 263 35 22 5 54 10 72 10 36 0 90 40 79 58 -10 17 -45 14 -171 -14z"/>
<path d="M7380 5505 c-19 -50 -13 -73 21 -80 42 -9 50 2 41 55 -6 36 -12 46
-30 48 -16 3 -25 -4 -32 -23z"/>
<path d="M4960 5427 c-85 -44 -178 -104 -349 -226 -77 -55 -151 -105 -163
-111 -74 -36 260 210 392 289 124 74 122 72 69 68 -112 -10 -359 -162 -599
-369 -47 -40 -127 -104 -178 -142 -51 -37 -92 -74 -92 -82 0 -22 43 -44 98
-51 50 -6 56 -3 191 71 77 42 142 76 146 76 17 0 243 114 325 165 52 31 114
67 139 80 25 13 64 39 86 58 51 44 138 154 127 161 -16 10 -242 -117 -465
-261 -54 -35 -103 -63 -109 -61 -26 9 115 127 243 202 171 101 239 146 239
157 0 17 -36 9 -100 -24z"/>
<path d="M5632 5415 c-62 -17 -92 -32 -92 -45 0 -13 68 -3 135 19 90 29 52 52
-43 26z"/>
<path d="M8181 5356 c-38 -39 -36 -66 3 -66 17 0 34 12 53 36 26 35 26 37 8
50 -26 19 -27 19 -64 -20z"/>
<path d="M5570 5343 c-65 -14 -108 -42 -96 -62 4 -6 13 -11 20 -11 20 0 156
70 156 81 0 5 -3 8 -7 8 -5 -1 -37 -8 -73 -16z"/>
<path d="M7336 5304 l-78 -26 4 -54 c6 -73 18 -83 65 -57 21 12 67 27 103 33
76 14 100 25 100 47 0 13 -10 14 -67 9 -66 -6 -66 0 2 20 20 7 30 16 30 29 0
30 -64 30 -159 -1z"/>
<path d="M7126 5243 c-3 -32 -16 -86 -27 -121 -18 -53 -19 -68 -9 -93 7 -16
15 -29 17 -29 3 0 34 26 70 57 63 56 65 58 59 96 -11 65 -62 147 -91 147 -7 0
-15 -23 -19 -57z"/>
<path d="M7740 5195 c-13 -16 -6 -35 15 -35 15 0 28 27 19 41 -8 13 -20 11
-34 -6z"/>
<path d="M7834 5178 c-17 -18 -40 -47 -51 -63 -23 -34 -40 -119 -26 -128 6 -4
33 12 62 33 50 37 81 50 81 33 0 -5 -20 -21 -45 -36 -25 -16 -45 -31 -45 -33
0 -2 15 -4 34 -4 40 0 96 36 114 73 12 24 10 34 -17 92 -36 77 -59 84 -107 33z"/>
<path d="M7950 5197 c0 -8 9 -22 20 -32 42 -38 38 -129 -8 -184 -25 -30 -35
-34 -142 -52 -63 -10 -168 -37 -232 -59 -65 -22 -160 -47 -210 -56 -90 -16
-148 -37 -148 -52 0 -4 14 -19 32 -34 39 -31 34 -41 -13 -28 -54 16 -145 12
-163 -6 -21 -21 -20 -77 2 -103 l17 -22 107 35 c59 19 135 40 170 46 109 19
118 21 118 36 0 10 -12 14 -40 14 -32 0 -40 4 -40 18 1 34 26 54 67 50 33 -3
41 -8 59 -43 28 -53 39 -51 206 25 141 65 171 86 258 184 l53 59 -6 74 c-4 59
-11 81 -32 109 -27 35 -75 48 -75 21z"/>
<path d="M7650 5145 c0 -10 7 -15 18 -13 21 4 19 22 -2 26 -10 2 -16 -3 -16
-13z"/>
<path d="M7523 5113 c-11 -10 -29 -36 -41 -58 -23 -45 -55 -78 -123 -123 -25
-17 -51 -37 -58 -46 -12 -14 -10 -16 10 -17 52 -3 76 4 120 32 52 33 77 37 86
13 5 -13 15 -15 50 -10 82 11 163 70 134 99 -5 5 -7 23 -4 39 5 26 3 29 -14
26 -11 -1 -27 3 -36 11 -14 11 -20 11 -32 1 -17 -14 -23 -11 -39 22 -15 29
-28 32 -53 11z"/>
<path d="M7263 5020 c-53 -58 -63 -86 -41 -108 17 -17 32 -15 60 11 43 38 68
83 68 121 0 53 -25 46 -87 -24z"/>
<path d="M6135 5055 c-22 -7 -60 -18 -83 -24 -37 -11 -46 -18 -62 -54 -10 -23
-21 -66 -24 -96 -4 -30 -14 -67 -22 -83 -9 -17 -14 -31 -12 -33 6 -6 133 21
156 33 17 10 22 22 22 52 0 32 5 43 30 60 36 26 55 60 65 118 8 48 1 51 -70
27z"/>
<path d="M5868 5003 c-9 -10 -25 -56 -37 -102 -19 -71 -32 -109 -59 -165 -6
-12 87 1 103 14 6 5 10 23 7 40 -2 17 7 66 23 115 15 46 25 91 22 99 -8 21
-40 20 -59 -1z"/>
<path d="M4761 4789 c-25 -5 -50 -17 -58 -29 -17 -23 -36 -26 -52 -6 -16 19
-50 8 -55 -18 -15 -74 -15 -85 5 -110 23 -29 45 -32 86 -12 15 8 36 17 46 20
9 3 20 13 24 22 3 9 21 39 39 66 29 42 36 80 15 77 -3 -1 -26 -5 -50 -10z"/>
<path d="M6958 4744 c-32 -17 -32 -17 -16 -44 10 -15 10 -26 0 -52 -12 -31
-10 -34 24 -65 19 -18 40 -33 45 -33 6 0 9 40 7 102 -3 113 -9 121 -60 92z"/>
<path d="M4640 4539 c-14 -6 -43 -27 -65 -48 -22 -21 -53 -41 -68 -45 -30 -7
-27 -4 -173 -224 -84 -126 -121 -202 -99 -202 4 0 39 10 78 21 102 31 124 49
133 107 10 72 36 107 108 142 24 12 42 37 78 111 65 131 67 161 8 138z"/>
<path d="M6110 4400 c-24 -24 -26 -72 -5 -90 12 -10 24 -10 60 0 54 15 58 20
45 56 -21 53 -65 69 -100 34z"/>
<path d="M4720 4362 c-49 -24 -48 -56 2 -60 20 -2 46 2 58 8 24 13 27 55 4 64
-22 9 -25 8 -64 -12z"/>
<path d="M4213 4305 c-33 -23 -29 -51 8 -64 18 -6 38 -11 45 -11 17 0 48 60
37 71 -18 18 -68 20 -90 4z"/>
<path d="M6656 4099 c-123 -19 -176 -34 -176 -51 0 -22 22 -48 42 -48 11 0 55
15 97 34 42 19 100 42 129 52 28 10 52 22 52 26 0 10 3 10 -144 -13z"/>
<path d="M6882 3900 c-97 -70 -183 -125 -212 -135 -27 -9 -51 -23 -54 -31 -3
-8 -19 -14 -39 -14 -22 0 -41 -8 -54 -22 -23 -25 -61 -134 -50 -144 9 -9 156
25 167 39 6 7 19 23 29 37 10 14 69 59 130 100 61 41 111 80 111 87 0 15 -24
5 -123 -50 -38 -21 -71 -37 -73 -34 -2 2 37 30 88 63 51 32 117 77 148 100 60
44 131 125 108 123 -7 0 -86 -54 -176 -119z"/>
<path d="M4416 3889 c-50 -59 -78 -117 -72 -147 20 -88 85 -123 97 -52 3 19
18 60 32 91 32 66 34 100 9 122 -26 24 -37 21 -66 -14z"/>
<path d="M5556 3557 c-25 -18 -16 -50 17 -61 32 -12 60 1 65 28 8 39 -45 60
-82 33z"/>
<path d="M6636 3534 c-3 -8 -2 -23 3 -32 5 -10 7 -30 4 -45 -4 -19 -1 -27 9
-27 23 0 38 22 38 56 0 48 -40 84 -54 48z"/>
<path d="M5530 3375 c-30 -36 26 -70 65 -41 16 12 18 18 9 33 -15 24 -57 28
-74 8z"/>
<path d="M6695 3330 c-4 -6 -6 -25 -5 -43 3 -51 1 -57 -20 -57 -14 0 -20 -9
-25 -37 -8 -54 -39 -107 -64 -111 -12 -2 -21 -11 -21 -19 0 -23 59 -113 74
-113 18 0 36 21 36 42 0 10 5 27 12 37 9 15 9 28 0 57 -15 49 2 77 55 94 91
29 105 64 52 125 -31 35 -80 48 -94 25z"/>
<path d="M5529 3214 c-11 -14 -10 -18 6 -30 23 -17 27 -17 50 0 24 17 13 46
-18 46 -14 0 -31 -7 -38 -16z"/>
<path d="M5642 3078 c-33 -33 10 -77 62 -64 33 8 34 39 4 60 -27 19 -50 20
-66 4z"/>
<path d="M5502 3002 c-38 -12 20 -141 103 -228 28 -30 59 -54 69 -54 16 0 18
6 12 46 -3 26 -6 65 -6 86 0 31 -6 46 -29 66 -38 36 -133 90 -149 84z"/>
<path d="M6432 2928 c-19 -19 -15 -26 31 -46 23 -11 51 -29 61 -41 28 -31 46
-27 46 10 0 63 -98 117 -138 77z"/>
<path d="M6367 2833 c-19 -19 13 -133 38 -133 20 0 105 70 105 86 0 28 -122
69 -143 47z"/>
<path d="M7845 2923 c-35 -7 -140 -46 -149 -55 -23 -20 114 1 212 33 59 19 8
38 -63 22z"/>
</g>
</svg>
